# xmcd
#
# Track frame offsets:
#	200
#	15085
#	34032
#	74167
#	92220
#	125637
#	150125
#	166432
#	194257
#	217802
#
# Disc length: 3149 seconds
#
# Revision: 1
# Processed by: cddbd v1.4PL0 Copyright (c) Steve Scherf et al.
# Submitted via: audiograbber 1.80.04
#
DISCID=7b0c4b0a
DTITLE=Curtis Mayfield - The Curtis Mayfield Story (Sampler)
DYEAR=1900
DGENRE=Blues
TTITLE0=People Get Ready - The Impressions
TTITLE1=Choice of Colors - The Impressions
TTITLE2=Move On Up
TTITLE3=Check Out Your Mind
TTITLE4=Beautiful Brother of Mine
TTITLE5=Freddie's Dead (Theme from "Superfly")
TTITLE6=Future Shock
TTITLE7=Kung Fu
TTITLE8=So In Love
TTITLE9=Love's Sweet Sensation - with Linda Clifford
EXTD=
EXTT0=
EXTT1=
EXTT2=
EXTT3=
EXTT4=
EXTT5=
EXTT6=
EXTT7=
EXTT8=
EXTT9=
PLAYORDER=
